<?xml version="1.0" encoding="utf-8" standalone="no"?>
<!DOCTYPE svg PUBLIC "-//W3C//DTD SVG 1.1//EN"
  "http://www.w3.org/Graphics/SVG/1.1/DTD/svg11.dtd">
<!-- Created with matplotlib (https://matplotlib.org/) -->
<svg height="288pt" version="1.1" viewBox="0 0 432 288" width="432pt" xmlns="http://www.w3.org/2000/svg" xmlns:xlink="http://www.w3.org/1999/xlink">
 <defs>
  <style type="text/css">
*{stroke-linecap:butt;stroke-linejoin:round;}
  </style>
 </defs>
 <g id="figure_1">
  <g id="patch_1">
   <path d="M 0 288 
L 432 288 
L 432 0 
L 0 0 
z
" style="fill:#ffffff;"/>
  </g>
  <g id="axes_1">
   <g id="patch_2">
    <path d="M 54 252 
L 388.8 252 
L 388.8 34.56 
L 54 34.56 
z
" style="fill:#ffffff;"/>
   </g>
   <g id="PathCollection_1">
    <defs>
     <path d="M 0 1.5 
C 0.397805 1.5 0.77937 1.341951 1.06066 1.06066 
C 1.341951 0.77937 1.5 0.397805 1.5 0 
C 1.5 -0.397805 1.341951 -0.77937 1.06066 -1.06066 
C 0.77937 -1.341951 0.397805 -1.5 0 -1.5 
C -0.397805 -1.5 -0.77937 -1.341951 -1.06066 -1.06066 
C -1.341951 -0.77937 -1.5 -0.397805 -1.5 0 
C -1.5 0.397805 -1.341951 0.77937 -1.06066 1.06066 
C -0.77937 1.341951 -0.397805 1.5 0 1.5 
z
" id="m68d4d53d9b" style="stroke:#008000;"/>
    </defs>
    <g clip-path="url(#p58cb4eebd2)">
     <use style="fill:#008000;stroke:#008000;" x="69.218182" xlink:href="#m68d4d53d9b" y="197.428853"/>
     <use style="fill:#008000;stroke:#008000;" x="73.268797" xlink:href="#m68d4d53d9b" y="204.816406"/>
     <use style="fill:#008000;stroke:#008000;" x="73.588292" xlink:href="#m68d4d53d9b" y="242.116364"/>
     <use style="fill:#008000;stroke:#008000;" x="74.313008" xlink:href="#m68d4d53d9b" y="228.111639"/>
     <use style="fill:#008000;stroke:#008000;" x="78.998754" xlink:href="#m68d4d53d9b" y="182.813394"/>
     <use style="fill:#008000;stroke:#008000;" x="80.329224" xlink:href="#m68d4d53d9b" y="186.404057"/>
     <use style="fill:#008000;stroke:#008000;" x="80.777765" xlink:href="#m68d4d53d9b" y="204.840728"/>
     <use style="fill:#008000;stroke:#008000;" x="82.70755" xlink:href="#m68d4d53d9b" y="191.332033"/>
     <use style="fill:#008000;stroke:#008000;" x="84.141965" xlink:href="#m68d4d53d9b" y="195.65934"/>
     <use style="fill:#008000;stroke:#008000;" x="90.372531" xlink:href="#m68d4d53d9b" y="194.171738"/>
     <use style="fill:#008000;stroke:#008000;" x="90.642562" xlink:href="#m68d4d53d9b" y="209.469228"/>
     <use style="fill:#008000;stroke:#008000;" x="91.62563" xlink:href="#m68d4d53d9b" y="194.442838"/>
     <use style="fill:#008000;stroke:#008000;" x="91.99335" xlink:href="#m68d4d53d9b" y="176.738025"/>
     <use style="fill:#008000;stroke:#008000;" x="93.112307" xlink:href="#m68d4d53d9b" y="188.545918"/>
     <use style="fill:#008000;stroke:#008000;" x="93.332106" xlink:href="#m68d4d53d9b" y="179.411528"/>
     <use style="fill:#008000;stroke:#008000;" x="95.129493" xlink:href="#m68d4d53d9b" y="195.162964"/>
     <use style="fill:#008000;stroke:#008000;" x="95.99148" xlink:href="#m68d4d53d9b" y="184.416909"/>
     <use style="fill:#008000;stroke:#008000;" x="96.903262" xlink:href="#m68d4d53d9b" y="181.950846"/>
     <use style="fill:#008000;stroke:#008000;" x="98.313763" xlink:href="#m68d4d53d9b" y="194.792297"/>
     <use style="fill:#008000;stroke:#008000;" x="98.886334" xlink:href="#m68d4d53d9b" y="185.889073"/>
     <use style="fill:#008000;stroke:#008000;" x="102.078304" xlink:href="#m68d4d53d9b" y="197.476053"/>
     <use style="fill:#008000;stroke:#008000;" x="103.502495" xlink:href="#m68d4d53d9b" y="180.526322"/>
     <use style="fill:#008000;stroke:#008000;" x="104.823122" xlink:href="#m68d4d53d9b" y="184.9048"/>
     <use style="fill:#008000;stroke:#008000;" x="105.656674" xlink:href="#m68d4d53d9b" y="192.920947"/>
     <use style="fill:#008000;stroke:#008000;" x="109.037146" xlink:href="#m68d4d53d9b" y="162.193643"/>
     <use style="fill:#008000;stroke:#008000;" x="109.360054" xlink:href="#m68d4d53d9b" y="189.294166"/>
     <use style="fill:#008000;stroke:#008000;" x="113.312695" xlink:href="#m68d4d53d9b" y="176.813169"/>
     <use style="fill:#008000;stroke:#008000;" x="113.33778" xlink:href="#m68d4d53d9b" y="183.426952"/>
     <use style="fill:#008000;stroke:#008000;" x="113.947951" xlink:href="#m68d4d53d9b" y="172.506631"/>
     <use style="fill:#008000;stroke:#008000;" x="117.807191" xlink:href="#m68d4d53d9b" y="155.34531"/>
     <use style="fill:#008000;stroke:#008000;" x="117.878446" xlink:href="#m68d4d53d9b" y="170.718968"/>
     <use style="fill:#008000;stroke:#008000;" x="119.637991" xlink:href="#m68d4d53d9b" y="169.774082"/>
     <use style="fill:#008000;stroke:#008000;" x="120.459446" xlink:href="#m68d4d53d9b" y="162.72809"/>
     <use style="fill:#008000;stroke:#008000;" x="121.18176" xlink:href="#m68d4d53d9b" y="164.369062"/>
     <use style="fill:#008000;stroke:#008000;" x="121.310666" xlink:href="#m68d4d53d9b" y="170.216488"/>
     <use style="fill:#008000;stroke:#008000;" x="125.089509" xlink:href="#m68d4d53d9b" y="190.137336"/>
     <use style="fill:#008000;stroke:#008000;" x="126.596728" xlink:href="#m68d4d53d9b" y="150.40125"/>
     <use style="fill:#008000;stroke:#008000;" x="127.773638" xlink:href="#m68d4d53d9b" y="140.56176"/>
     <use style="fill:#008000;stroke:#008000;" x="127.902437" xlink:href="#m68d4d53d9b" y="167.117905"/>
     <use style="fill:#008000;stroke:#008000;" x="129.192029" xlink:href="#m68d4d53d9b" y="166.90509"/>
     <use style="fill:#008000;stroke:#008000;" x="130.366183" xlink:href="#m68d4d53d9b" y="155.229186"/>
     <use style="fill:#008000;stroke:#008000;" x="133.038247" xlink:href="#m68d4d53d9b" y="151.033441"/>
     <use style="fill:#008000;stroke:#008000;" x="135.625942" xlink:href="#m68d4d53d9b" y="141.596459"/>
     <use style="fill:#008000;stroke:#008000;" x="136.792007" xlink:href="#m68d4d53d9b" y="148.22507"/>
     <use style="fill:#008000;stroke:#008000;" x="137.761705" xlink:href="#m68d4d53d9b" y="156.060594"/>
     <use style="fill:#008000;stroke:#008000;" x="138.208129" xlink:href="#m68d4d53d9b" y="169.799159"/>
     <use style="fill:#008000;stroke:#008000;" x="139.008565" xlink:href="#m68d4d53d9b" y="135.571379"/>
     <use style="fill:#008000;stroke:#008000;" x="143.544555" xlink:href="#m68d4d53d9b" y="151.310022"/>
     <use style="fill:#008000;stroke:#008000;" x="143.912808" xlink:href="#m68d4d53d9b" y="165.063621"/>
     <use style="fill:#008000;stroke:#008000;" x="146.111942" xlink:href="#m68d4d53d9b" y="148.967463"/>
     <use style="fill:#008000;stroke:#008000;" x="147.81065" xlink:href="#m68d4d53d9b" y="154.576855"/>
     <use style="fill:#008000;stroke:#008000;" x="148.626511" xlink:href="#m68d4d53d9b" y="138.977944"/>
     <use style="fill:#008000;stroke:#008000;" x="149.369274" xlink:href="#m68d4d53d9b" y="145.307846"/>
     <use style="fill:#008000;stroke:#008000;" x="151.695289" xlink:href="#m68d4d53d9b" y="138.263929"/>
     <use style="fill:#008000;stroke:#008000;" x="152.752076" xlink:href="#m68d4d53d9b" y="144.437851"/>
     <use style="fill:#008000;stroke:#008000;" x="152.859092" xlink:href="#m68d4d53d9b" y="138.781216"/>
     <use style="fill:#008000;stroke:#008000;" x="153.891809" xlink:href="#m68d4d53d9b" y="133.745714"/>
     <use style="fill:#008000;stroke:#008000;" x="154.323129" xlink:href="#m68d4d53d9b" y="135.904288"/>
     <use style="fill:#008000;stroke:#008000;" x="155.299904" xlink:href="#m68d4d53d9b" y="150.348153"/>
     <use style="fill:#008000;stroke:#008000;" x="158.441081" xlink:href="#m68d4d53d9b" y="123.76983"/>
     <use style="fill:#008000;stroke:#008000;" x="159.463132" xlink:href="#m68d4d53d9b" y="135.78787"/>
     <use style="fill:#008000;stroke:#008000;" x="160.154425" xlink:href="#m68d4d53d9b" y="143.785905"/>
     <use style="fill:#008000;stroke:#008000;" x="164.376475" xlink:href="#m68d4d53d9b" y="126.107596"/>
     <use style="fill:#008000;stroke:#008000;" x="167.026234" xlink:href="#m68d4d53d9b" y="160.123312"/>
     <use style="fill:#008000;stroke:#008000;" x="170.273173" xlink:href="#m68d4d53d9b" y="130.298757"/>
     <use style="fill:#008000;stroke:#008000;" x="170.871666" xlink:href="#m68d4d53d9b" y="132.762085"/>
     <use style="fill:#008000;stroke:#008000;" x="172.1741" xlink:href="#m68d4d53d9b" y="118.575313"/>
     <use style="fill:#008000;stroke:#008000;" x="174.781075" xlink:href="#m68d4d53d9b" y="136.098828"/>
     <use style="fill:#008000;stroke:#008000;" x="175.317766" xlink:href="#m68d4d53d9b" y="131.604965"/>
     <use style="fill:#008000;stroke:#008000;" x="175.918885" xlink:href="#m68d4d53d9b" y="143.521423"/>
     <use style="fill:#008000;stroke:#008000;" x="176.871537" xlink:href="#m68d4d53d9b" y="118.061631"/>
     <use style="fill:#008000;stroke:#008000;" x="179.550426" xlink:href="#m68d4d53d9b" y="100.681238"/>
     <use style="fill:#008000;stroke:#008000;" x="184.091487" xlink:href="#m68d4d53d9b" y="127.67419"/>
     <use style="fill:#008000;stroke:#008000;" x="186.268387" xlink:href="#m68d4d53d9b" y="128.502205"/>
     <use style="fill:#008000;stroke:#008000;" x="187.275857" xlink:href="#m68d4d53d9b" y="119.082631"/>
     <use style="fill:#008000;stroke:#008000;" x="188.058292" xlink:href="#m68d4d53d9b" y="116.789664"/>
     <use style="fill:#008000;stroke:#008000;" x="188.855431" xlink:href="#m68d4d53d9b" y="115.72951"/>
     <use style="fill:#008000;stroke:#008000;" x="189.203055" xlink:href="#m68d4d53d9b" y="109.337154"/>
     <use style="fill:#008000;stroke:#008000;" x="189.403622" xlink:href="#m68d4d53d9b" y="119.416002"/>
     <use style="fill:#008000;stroke:#008000;" x="189.690463" xlink:href="#m68d4d53d9b" y="110.838267"/>
     <use style="fill:#008000;stroke:#008000;" x="190.120678" xlink:href="#m68d4d53d9b" y="107.704288"/>
     <use style="fill:#008000;stroke:#008000;" x="191.239522" xlink:href="#m68d4d53d9b" y="122.973596"/>
     <use style="fill:#008000;stroke:#008000;" x="192.849051" xlink:href="#m68d4d53d9b" y="103.34504"/>
     <use style="fill:#008000;stroke:#008000;" x="193.324" xlink:href="#m68d4d53d9b" y="117.587402"/>
     <use style="fill:#008000;stroke:#008000;" x="194.689111" xlink:href="#m68d4d53d9b" y="91.197031"/>
     <use style="fill:#008000;stroke:#008000;" x="198.718633" xlink:href="#m68d4d53d9b" y="109.109025"/>
     <use style="fill:#008000;stroke:#008000;" x="200.337642" xlink:href="#m68d4d53d9b" y="108.354609"/>
     <use style="fill:#008000;stroke:#008000;" x="201.743621" xlink:href="#m68d4d53d9b" y="105.062024"/>
     <use style="fill:#008000;stroke:#008000;" x="207.23908" xlink:href="#m68d4d53d9b" y="111.67998"/>
     <use style="fill:#008000;stroke:#008000;" x="207.412075" xlink:href="#m68d4d53d9b" y="118.514768"/>
     <use style="fill:#008000;stroke:#008000;" x="211.00044" xlink:href="#m68d4d53d9b" y="94.534474"/>
     <use style="fill:#008000;stroke:#008000;" x="211.180994" xlink:href="#m68d4d53d9b" y="112.321538"/>
     <use style="fill:#008000;stroke:#008000;" x="211.380587" xlink:href="#m68d4d53d9b" y="89.545397"/>
     <use style="fill:#008000;stroke:#008000;" x="212.634656" xlink:href="#m68d4d53d9b" y="113.596591"/>
     <use style="fill:#008000;stroke:#008000;" x="215.545974" xlink:href="#m68d4d53d9b" y="92.971799"/>
     <use style="fill:#008000;stroke:#008000;" x="218.045724" xlink:href="#m68d4d53d9b" y="114.358365"/>
     <use style="fill:#008000;stroke:#008000;" x="218.980332" xlink:href="#m68d4d53d9b" y="78.665314"/>
     <use style="fill:#008000;stroke:#008000;" x="219.004855" xlink:href="#m68d4d53d9b" y="78.596396"/>
     <use style="fill:#008000;stroke:#008000;" x="219.91568" xlink:href="#m68d4d53d9b" y="88.024506"/>
     <use style="fill:#008000;stroke:#008000;" x="221.891398" xlink:href="#m68d4d53d9b" y="111.240906"/>
     <use style="fill:#008000;stroke:#008000;" x="225.000525" xlink:href="#m68d4d53d9b" y="93.246579"/>
     <use style="fill:#008000;stroke:#008000;" x="225.495971" xlink:href="#m68d4d53d9b" y="96.156294"/>
     <use style="fill:#008000;stroke:#008000;" x="226.47861" xlink:href="#m68d4d53d9b" y="94.869654"/>
     <use style="fill:#008000;stroke:#008000;" x="227.877151" xlink:href="#m68d4d53d9b" y="96.547498"/>
     <use style="fill:#008000;stroke:#008000;" x="230.452685" xlink:href="#m68d4d53d9b" y="82.061824"/>
     <use style="fill:#008000;stroke:#008000;" x="231.001118" xlink:href="#m68d4d53d9b" y="115.767882"/>
     <use style="fill:#008000;stroke:#008000;" x="232.677448" xlink:href="#m68d4d53d9b" y="78.567732"/>
     <use style="fill:#008000;stroke:#008000;" x="233.351261" xlink:href="#m68d4d53d9b" y="95.325576"/>
     <use style="fill:#008000;stroke:#008000;" x="234.192051" xlink:href="#m68d4d53d9b" y="99.025269"/>
     <use style="fill:#008000;stroke:#008000;" x="235.960965" xlink:href="#m68d4d53d9b" y="94.484994"/>
     <use style="fill:#008000;stroke:#008000;" x="236.213303" xlink:href="#m68d4d53d9b" y="95.37502"/>
     <use style="fill:#008000;stroke:#008000;" x="242.993731" xlink:href="#m68d4d53d9b" y="90.885087"/>
     <use style="fill:#008000;stroke:#008000;" x="243.360557" xlink:href="#m68d4d53d9b" y="92.613625"/>
     <use style="fill:#008000;stroke:#008000;" x="244.112944" xlink:href="#m68d4d53d9b" y="86.69268"/>
     <use style="fill:#008000;stroke:#008000;" x="245.200888" xlink:href="#m68d4d53d9b" y="87.82305"/>
     <use style="fill:#008000;stroke:#008000;" x="245.651122" xlink:href="#m68d4d53d9b" y="83.312374"/>
     <use style="fill:#008000;stroke:#008000;" x="245.670944" xlink:href="#m68d4d53d9b" y="104.996824"/>
     <use style="fill:#008000;stroke:#008000;" x="247.352837" xlink:href="#m68d4d53d9b" y="93.906396"/>
     <use style="fill:#008000;stroke:#008000;" x="248.686155" xlink:href="#m68d4d53d9b" y="69.855478"/>
     <use style="fill:#008000;stroke:#008000;" x="249.284757" xlink:href="#m68d4d53d9b" y="82.4089"/>
     <use style="fill:#008000;stroke:#008000;" x="249.945341" xlink:href="#m68d4d53d9b" y="75.178115"/>
     <use style="fill:#008000;stroke:#008000;" x="252.311905" xlink:href="#m68d4d53d9b" y="101.1085"/>
     <use style="fill:#008000;stroke:#008000;" x="253.21945" xlink:href="#m68d4d53d9b" y="78.957202"/>
     <use style="fill:#008000;stroke:#008000;" x="257.947223" xlink:href="#m68d4d53d9b" y="79.149904"/>
     <use style="fill:#008000;stroke:#008000;" x="260.224941" xlink:href="#m68d4d53d9b" y="92.919171"/>
     <use style="fill:#008000;stroke:#008000;" x="261.582413" xlink:href="#m68d4d53d9b" y="87.951221"/>
     <use style="fill:#008000;stroke:#008000;" x="261.617837" xlink:href="#m68d4d53d9b" y="87.578695"/>
     <use style="fill:#008000;stroke:#008000;" x="263.379865" xlink:href="#m68d4d53d9b" y="65.616893"/>
     <use style="fill:#008000;stroke:#008000;" x="265.290244" xlink:href="#m68d4d53d9b" y="93.651236"/>
     <use style="fill:#008000;stroke:#008000;" x="266.133424" xlink:href="#m68d4d53d9b" y="97.510864"/>
     <use style="fill:#008000;stroke:#008000;" x="266.140025" xlink:href="#m68d4d53d9b" y="69.490529"/>
     <use style="fill:#008000;stroke:#008000;" x="267.181821" xlink:href="#m68d4d53d9b" y="80.796774"/>
     <use style="fill:#008000;stroke:#008000;" x="267.348053" xlink:href="#m68d4d53d9b" y="49.156416"/>
     <use style="fill:#008000;stroke:#008000;" x="268.38878" xlink:href="#m68d4d53d9b" y="67.971052"/>
     <use style="fill:#008000;stroke:#008000;" x="268.541177" xlink:href="#m68d4d53d9b" y="84.542154"/>
     <use style="fill:#008000;stroke:#008000;" x="268.710416" xlink:href="#m68d4d53d9b" y="85.779779"/>
     <use style="fill:#008000;stroke:#008000;" x="272.87313" xlink:href="#m68d4d53d9b" y="80.234242"/>
     <use style="fill:#008000;stroke:#008000;" x="276.760267" xlink:href="#m68d4d53d9b" y="78.494068"/>
     <use style="fill:#008000;stroke:#008000;" x="278.403888" xlink:href="#m68d4d53d9b" y="65.650876"/>
     <use style="fill:#008000;stroke:#008000;" x="281.934803" xlink:href="#m68d4d53d9b" y="65.0104"/>
     <use style="fill:#008000;stroke:#008000;" x="285.387192" xlink:href="#m68d4d53d9b" y="72.125487"/>
     <use style="fill:#008000;stroke:#008000;" x="286.707866" xlink:href="#m68d4d53d9b" y="44.816009"/>
     <use style="fill:#008000;stroke:#008000;" x="288.01781" xlink:href="#m68d4d53d9b" y="65.465991"/>
     <use style="fill:#008000;stroke:#008000;" x="288.20065" xlink:href="#m68d4d53d9b" y="82.066102"/>
     <use style="fill:#008000;stroke:#008000;" x="292.305797" xlink:href="#m68d4d53d9b" y="79.571872"/>
     <use style="fill:#008000;stroke:#008000;" x="292.906925" xlink:href="#m68d4d53d9b" y="94.861547"/>
     <use style="fill:#008000;stroke:#008000;" x="293.013039" xlink:href="#m68d4d53d9b" y="92.646879"/>
     <use style="fill:#008000;stroke:#008000;" x="293.199188" xlink:href="#m68d4d53d9b" y="66.084873"/>
     <use style="fill:#008000;stroke:#008000;" x="296.242593" xlink:href="#m68d4d53d9b" y="72.689779"/>
     <use style="fill:#008000;stroke:#008000;" x="298.176048" xlink:href="#m68d4d53d9b" y="94.539238"/>
     <use style="fill:#008000;stroke:#008000;" x="298.542061" xlink:href="#m68d4d53d9b" y="65.023617"/>
     <use style="fill:#008000;stroke:#008000;" x="298.968785" xlink:href="#m68d4d53d9b" y="87.667839"/>
     <use style="fill:#008000;stroke:#008000;" x="303.007274" xlink:href="#m68d4d53d9b" y="57.739866"/>
     <use style="fill:#008000;stroke:#008000;" x="303.465102" xlink:href="#m68d4d53d9b" y="70.211906"/>
     <use style="fill:#008000;stroke:#008000;" x="303.683267" xlink:href="#m68d4d53d9b" y="74.977852"/>
     <use style="fill:#008000;stroke:#008000;" x="306.85581" xlink:href="#m68d4d53d9b" y="86.727407"/>
     <use style="fill:#008000;stroke:#008000;" x="308.785702" xlink:href="#m68d4d53d9b" y="45.498401"/>
     <use style="fill:#008000;stroke:#008000;" x="310.017236" xlink:href="#m68d4d53d9b" y="74.312241"/>
     <use style="fill:#008000;stroke:#008000;" x="311.622619" xlink:href="#m68d4d53d9b" y="79.462568"/>
     <use style="fill:#008000;stroke:#008000;" x="312.084442" xlink:href="#m68d4d53d9b" y="72.427568"/>
     <use style="fill:#008000;stroke:#008000;" x="316.419746" xlink:href="#m68d4d53d9b" y="76.185634"/>
     <use style="fill:#008000;stroke:#008000;" x="316.807685" xlink:href="#m68d4d53d9b" y="67.349128"/>
     <use style="fill:#008000;stroke:#008000;" x="318.323405" xlink:href="#m68d4d53d9b" y="70.100867"/>
     <use style="fill:#008000;stroke:#008000;" x="319.492709" xlink:href="#m68d4d53d9b" y="62.127516"/>
     <use style="fill:#008000;stroke:#008000;" x="321.45619" xlink:href="#m68d4d53d9b" y="77.057446"/>
     <use style="fill:#008000;stroke:#008000;" x="322.360529" xlink:href="#m68d4d53d9b" y="60.767215"/>
     <use style="fill:#008000;stroke:#008000;" x="322.629095" xlink:href="#m68d4d53d9b" y="82.494409"/>
     <use style="fill:#008000;stroke:#008000;" x="323.228782" xlink:href="#m68d4d53d9b" y="68.70806"/>
     <use style="fill:#008000;stroke:#008000;" x="324.327029" xlink:href="#m68d4d53d9b" y="76.709684"/>
     <use style="fill:#008000;stroke:#008000;" x="325.587806" xlink:href="#m68d4d53d9b" y="75.818798"/>
     <use style="fill:#008000;stroke:#008000;" x="327.681363" xlink:href="#m68d4d53d9b" y="67.219718"/>
     <use style="fill:#008000;stroke:#008000;" x="329.905953" xlink:href="#m68d4d53d9b" y="83.014087"/>
     <use style="fill:#008000;stroke:#008000;" x="331.525075" xlink:href="#m68d4d53d9b" y="62.387194"/>
     <use style="fill:#008000;stroke:#008000;" x="331.679729" xlink:href="#m68d4d53d9b" y="70.101971"/>
     <use style="fill:#008000;stroke:#008000;" x="334.136825" xlink:href="#m68d4d53d9b" y="44.443636"/>
     <use style="fill:#008000;stroke:#008000;" x="335.92974" xlink:href="#m68d4d53d9b" y="65.320386"/>
     <use style="fill:#008000;stroke:#008000;" x="337.237604" xlink:href="#m68d4d53d9b" y="72.120317"/>
     <use style="fill:#008000;stroke:#008000;" x="337.482266" xlink:href="#m68d4d53d9b" y="85.04568"/>
     <use style="fill:#008000;stroke:#008000;" x="337.837234" xlink:href="#m68d4d53d9b" y="59.68173"/>
     <use style="fill:#008000;stroke:#008000;" x="339.116674" xlink:href="#m68d4d53d9b" y="74.330077"/>
     <use style="fill:#008000;stroke:#008000;" x="340.493223" xlink:href="#m68d4d53d9b" y="81.904904"/>
     <use style="fill:#008000;stroke:#008000;" x="340.935563" xlink:href="#m68d4d53d9b" y="83.686464"/>
     <use style="fill:#008000;stroke:#008000;" x="345.800667" xlink:href="#m68d4d53d9b" y="66.966228"/>
     <use style="fill:#008000;stroke:#008000;" x="347.217121" xlink:href="#m68d4d53d9b" y="84.178929"/>
     <use style="fill:#008000;stroke:#008000;" x="347.81746" xlink:href="#m68d4d53d9b" y="87.338928"/>
     <use style="fill:#008000;stroke:#008000;" x="348.067824" xlink:href="#m68d4d53d9b" y="108.4842"/>
     <use style="fill:#008000;stroke:#008000;" x="353.150362" xlink:href="#m68d4d53d9b" y="79.07113"/>
     <use style="fill:#008000;stroke:#008000;" x="356.147688" xlink:href="#m68d4d53d9b" y="81.482564"/>
     <use style="fill:#008000;stroke:#008000;" x="356.465591" xlink:href="#m68d4d53d9b" y="94.784922"/>
     <use style="fill:#008000;stroke:#008000;" x="357.932969" xlink:href="#m68d4d53d9b" y="78.844969"/>
     <use style="fill:#008000;stroke:#008000;" x="358.281189" xlink:href="#m68d4d53d9b" y="69.873635"/>
     <use style="fill:#008000;stroke:#008000;" x="360.879207" xlink:href="#m68d4d53d9b" y="82.256613"/>
     <use style="fill:#008000;stroke:#008000;" x="363.134623" xlink:href="#m68d4d53d9b" y="66.168773"/>
     <use style="fill:#008000;stroke:#008000;" x="363.760348" xlink:href="#m68d4d53d9b" y="50.472761"/>
     <use style="fill:#008000;stroke:#008000;" x="366.000005" xlink:href="#m68d4d53d9b" y="60.705768"/>
     <use style="fill:#008000;stroke:#008000;" x="368.867456" xlink:href="#m68d4d53d9b" y="72.198565"/>
     <use style="fill:#008000;stroke:#008000;" x="368.948595" xlink:href="#m68d4d53d9b" y="75.668125"/>
     <use style="fill:#008000;stroke:#008000;" x="370.425047" xlink:href="#m68d4d53d9b" y="85.583029"/>
     <use style="fill:#008000;stroke:#008000;" x="371.181428" xlink:href="#m68d4d53d9b" y="65.447277"/>
     <use style="fill:#008000;stroke:#008000;" x="373.581818" xlink:href="#m68d4d53d9b" y="85.499838"/>
    </g>
   </g>
   <g id="matplotlib.axis_1">
    <g id="xtick_1">
     <g id="line2d_1">
      <defs>
       <path d="M 0 0 
L 0 3.5 
" id="m05b3d13779" style="stroke:#000000;stroke-width:0.8;"/>
      </defs>
      <g>
       <use style="stroke:#000000;stroke-width:0.8;" x="102.511089" xlink:href="#m05b3d13779" y="252"/>
      </g>
     </g>
     <g id="text_1">
      <!-- −0.4 -->
      <defs>
       <path d="M 10.59375 35.5 
L 73.1875 35.5 
L 73.1875 27.203125 
L 10.59375 27.203125 
z
" id="DejaVuSans-8722"/>
       <path d="M 31.78125 66.40625 
Q 24.171875 66.40625 20.328125 58.90625 
Q 16.5 51.421875 16.5 36.375 
Q 16.5 21.390625 20.328125 13.890625 
Q 24.171875 6.390625 31.78125 6.390625 
Q 39.453125 6.390625 43.28125 13.890625 
Q 47.125 21.390625 47.125 36.375 
Q 47.125 51.421875 43.28125 58.90625 
Q 39.453125 66.40625 31.78125 66.40625 
z
M 31.78125 74.21875 
Q 44.046875 74.21875 50.515625 64.515625 
Q 56.984375 54.828125 56.984375 36.375 
Q 56.984375 17.96875 50.515625 8.265625 
Q 44.046875 -1.421875 31.78125 -1.421875 
Q 19.53125 -1.421875 13.0625 8.265625 
Q 6.59375 17.96875 6.59375 36.375 
Q 6.59375 54.828125 13.0625 64.515625 
Q 19.53125 74.21875 31.78125 74.21875 
z
" id="DejaVuSans-48"/>
       <path d="M 10.6875 12.40625 
L 21 12.40625 
L 21 0 
L 10.6875 0 
z
" id="DejaVuSans-46"/>
       <path d="M 37.796875 64.3125 
L 12.890625 25.390625 
L 37.796875 25.390625 
z
M 35.203125 72.90625 
L 47.609375 72.90625 
L 47.609375 25.390625 
L 58.015625 25.390625 
L 58.015625 17.1875 
L 47.609375 17.1875 
L 47.609375 0 
L 37.796875 0 
L 37.796875 17.1875 
L 4.890625 17.1875 
L 4.890625 26.703125 
z
" id="DejaVuSans-52"/>
      </defs>
      <g transform="translate(90.369683 266.598437)scale(0.1 -0.1)">
       <use xlink:href="#DejaVuSans-8722"/>
       <use x="83.789062" xlink:href="#DejaVuSans-48"/>
       <use x="147.412109" xlink:href="#DejaVuSans-46"/>
       <use x="179.199219" xlink:href="#DejaVuSans-52"/>
      </g>
     </g>
    </g>
    <g id="xtick_2">
     <g id="line2d_2">
      <g>
       <use style="stroke:#000000;stroke-width:0.8;" x="162.261154" xlink:href="#m05b3d13779" y="252"/>
      </g>
     </g>
     <g id="text_2">
      <!-- −0.2 -->
      <defs>
       <path d="M 19.1875 8.296875 
L 53.609375 8.296875 
L 53.609375 0 
L 7.328125 0 
L 7.328125 8.296875 
Q 12.9375 14.109375 22.625 23.890625 
Q 32.328125 33.6875 34.8125 36.53125 
Q 39.546875 41.84375 41.421875 45.53125 
Q 43.3125 49.21875 43.3125 52.78125 
Q 43.3125 58.59375 39.234375 62.25 
Q 35.15625 65.921875 28.609375 65.921875 
Q 23.96875 65.921875 18.8125 64.3125 
Q 13.671875 62.703125 7.8125 59.421875 
L 7.8125 69.390625 
Q 13.765625 71.78125 18.9375 73 
Q 24.125 74.21875 28.421875 74.21875 
Q 39.75 74.21875 46.484375 68.546875 
Q 53.21875 62.890625 53.21875 53.421875 
Q 53.21875 48.921875 51.53125 44.890625 
Q 49.859375 40.875 45.40625 35.40625 
Q 44.1875 33.984375 37.640625 27.21875 
Q 31.109375 20.453125 19.1875 8.296875 
z
" id="DejaVuSans-50"/>
      </defs>
      <g transform="translate(150.119748 266.598437)scale(0.1 -0.1)">
       <use xlink:href="#DejaVuSans-8722"/>
       <use x="83.789062" xlink:href="#DejaVuSans-48"/>
       <use x="147.412109" xlink:href="#DejaVuSans-46"/>
       <use x="179.199219" xlink:href="#DejaVuSans-50"/>
      </g>
     </g>
    </g>
    <g id="xtick_3">
     <g id="line2d_3">
      <g>
       <use style="stroke:#000000;stroke-width:0.8;" x="222.01122" xlink:href="#m05b3d13779" y="252"/>
      </g>
     </g>
     <g id="text_3">
      <!-- 0.0 -->
      <g transform="translate(214.059657 266.598437)scale(0.1 -0.1)">
       <use xlink:href="#DejaVuSans-48"/>
       <use x="63.623047" xlink:href="#DejaVuSans-46"/>
       <use x="95.410156" xlink:href="#DejaVuSans-48"/>
      </g>
     </g>
    </g>
    <g id="xtick_4">
     <g id="line2d_4">
      <g>
       <use style="stroke:#000000;stroke-width:0.8;" x="281.761285" xlink:href="#m05b3d13779" y="252"/>
      </g>
     </g>
     <g id="text_4">
      <!-- 0.2 -->
      <g transform="translate(273.809722 266.598437)scale(0.1 -0.1)">
       <use xlink:href="#DejaVuSans-48"/>
       <use x="63.623047" xlink:href="#DejaVuSans-46"/>
       <use x="95.410156" xlink:href="#DejaVuSans-50"/>
      </g>
     </g>
    </g>
    <g id="xtick_5">
     <g id="line2d_5">
      <g>
       <use style="stroke:#000000;stroke-width:0.8;" x="341.51135" xlink:href="#m05b3d13779" y="252"/>
      </g>
     </g>
     <g id="text_5">
      <!-- 0.4 -->
      <g transform="translate(333.559788 266.598437)scale(0.1 -0.1)">
       <use xlink:href="#DejaVuSans-48"/>
       <use x="63.623047" xlink:href="#DejaVuSans-46"/>
       <use x="95.410156" xlink:href="#DejaVuSans-52"/>
      </g>
     </g>
    </g>
    <g id="text_6">
     <!-- X(input) -->
     <defs>
      <path d="M 6.296875 72.90625 
L 16.890625 72.90625 
L 35.015625 45.796875 
L 53.21875 72.90625 
L 63.8125 72.90625 
L 40.375 37.890625 
L 65.375 0 
L 54.78125 0 
L 34.28125 31 
L 13.625 0 
L 2.984375 0 
L 29 38.921875 
z
" id="DejaVuSans-88"/>
      <path d="M 31 75.875 
Q 24.46875 64.65625 21.28125 53.65625 
Q 18.109375 42.671875 18.109375 31.390625 
Q 18.109375 20.125 21.3125 9.0625 
Q 24.515625 -2 31 -13.1875 
L 23.1875 -13.1875 
Q 15.875 -1.703125 12.234375 9.375 
Q 8.59375 20.453125 8.59375 31.390625 
Q 8.59375 42.28125 12.203125 53.3125 
Q 15.828125 64.359375 23.1875 75.875 
z
" id="DejaVuSans-40"/>
      <path d="M 9.421875 54.6875 
L 18.40625 54.6875 
L 18.40625 0 
L 9.421875 0 
z
M 9.421875 75.984375 
L 18.40625 75.984375 
L 18.40625 64.59375 
L 9.421875 64.59375 
z
" id="DejaVuSans-105"/>
      <path d="M 54.890625 33.015625 
L 54.890625 0 
L 45.90625 0 
L 45.90625 32.71875 
Q 45.90625 40.484375 42.875 44.328125 
Q 39.84375 48.1875 33.796875 48.1875 
Q 26.515625 48.1875 22.3125 43.546875 
Q 18.109375 38.921875 18.109375 30.90625 
L 18.109375 0 
L 9.078125 0 
L 9.078125 54.6875 
L 18.109375 54.6875 
L 18.109375 46.1875 
Q 21.34375 51.125 25.703125 53.5625 
Q 30.078125 56 35.796875 56 
Q 45.21875 56 50.046875 50.171875 
Q 54.890625 44.34375 54.890625 33.015625 
z
" id="DejaVuSans-110"/>
      <path d="M 18.109375 8.203125 
L 18.109375 -20.796875 
L 9.078125 -20.796875 
L 9.078125 54.6875 
L 18.109375 54.6875 
L 18.109375 46.390625 
Q 20.953125 51.265625 25.265625 53.625 
Q 29.59375 56 35.59375 56 
Q 45.5625 56 51.78125 48.09375 
Q 58.015625 40.1875 58.015625 27.296875 
Q 58.015625 14.40625 51.78125 6.484375 
Q 45.5625 -1.421875 35.59375 -1.421875 
Q 29.59375 -1.421875 25.265625 0.953125 
Q 20.953125 3.328125 18.109375 8.203125 
z
M 48.6875 27.296875 
Q 48.6875 37.203125 44.609375 42.84375 
Q 40.53125 48.484375 33.40625 48.484375 
Q 26.265625 48.484375 22.1875 42.84375 
Q 18.109375 37.203125 18.109375 27.296875 
Q 18.109375 17.390625 22.1875 11.75 
Q 26.265625 6.109375 33.40625 6.109375 
Q 40.53125 6.109375 44.609375 11.75 
Q 48.6875 17.390625 48.6875 27.296875 
z
" id="DejaVuSans-112"/>
      <path d="M 8.5 21.578125 
L 8.5 54.6875 
L 17.484375 54.6875 
L 17.484375 21.921875 
Q 17.484375 14.15625 20.5 10.265625 
Q 23.53125 6.390625 29.59375 6.390625 
Q 36.859375 6.390625 41.078125 11.03125 
Q 45.3125 15.671875 45.3125 23.6875 
L 45.3125 54.6875 
L 54.296875 54.6875 
L 54.296875 0 
L 45.3125 0 
L 45.3125 8.40625 
Q 42.046875 3.421875 37.71875 1 
Q 33.40625 -1.421875 27.6875 -1.421875 
Q 18.265625 -1.421875 13.375 4.4375 
Q 8.5 10.296875 8.5 21.578125 
z
M 31.109375 56 
z
" id="DejaVuSans-117"/>
      <path d="M 18.3125 70.21875 
L 18.3125 54.6875 
L 36.8125 54.6875 
L 36.8125 47.703125 
L 18.3125 47.703125 
L 18.3125 18.015625 
Q 18.3125 11.328125 20.140625 9.421875 
Q 21.96875 7.515625 27.59375 7.515625 
L 36.8125 7.515625 
L 36.8125 0 
L 27.59375 0 
Q 17.1875 0 13.234375 3.875 
Q 9.28125 7.765625 9.28125 18.015625 
L 9.28125 47.703125 
L 2.6875 47.703125 
L 2.6875 54.6875 
L 9.28125 54.6875 
L 9.28125 70.21875 
z
" id="DejaVuSans-116"/>
      <path d="M 8.015625 75.875 
L 15.828125 75.875 
Q 23.140625 64.359375 26.78125 53.3125 
Q 30.421875 42.28125 30.421875 31.390625 
Q 30.421875 20.453125 26.78125 9.375 
Q 23.140625 -1.703125 15.828125 -13.1875 
L 8.015625 -13.1875 
Q 14.5 -2 17.703125 9.0625 
Q 20.90625 20.125 20.90625 31.390625 
Q 20.90625 42.671875 17.703125 53.65625 
Q 14.5 64.65625 8.015625 75.875 
z
" id="DejaVuSans-41"/>
     </defs>
     <g transform="translate(201.2125 280.276563)scale(0.1 -0.1)">
      <use xlink:href="#DejaVuSans-88"/>
      <use x="68.505859" xlink:href="#DejaVuSans-40"/>
      <use x="107.519531" xlink:href="#DejaVuSans-105"/>
      <use x="135.302734" xlink:href="#DejaVuSans-110"/>
      <use x="198.681641" xlink:href="#DejaVuSans-112"/>
      <use x="262.158203" xlink:href="#DejaVuSans-117"/>
      <use x="325.537109" xlink:href="#DejaVuSans-116"/>
      <use x="364.746094" xlink:href="#DejaVuSans-41"/>
     </g>
    </g>
   </g>
   <g id="matplotlib.axis_2">
    <g id="ytick_1">
     <g id="line2d_6">
      <defs>
       <path d="M 0 0 
L -3.5 0 
" id="m1dbafe0e95" style="stroke:#000000;stroke-width:0.8;"/>
      </defs>
      <g>
       <use style="stroke:#000000;stroke-width:0.8;" x="54" xlink:href="#m1dbafe0e95" y="211.473121"/>
      </g>
     </g>
     <g id="text_7">
      <!-- 0.5 -->
      <defs>
       <path d="M 10.796875 72.90625 
L 49.515625 72.90625 
L 49.515625 64.59375 
L 19.828125 64.59375 
L 19.828125 46.734375 
Q 21.96875 47.46875 24.109375 47.828125 
Q 26.265625 48.1875 28.421875 48.1875 
Q 40.625 48.1875 47.75 41.5 
Q 54.890625 34.8125 54.890625 23.390625 
Q 54.890625 11.625 47.5625 5.09375 
Q 40.234375 -1.421875 26.90625 -1.421875 
Q 22.3125 -1.421875 17.546875 -0.640625 
Q 12.796875 0.140625 7.71875 1.703125 
L 7.71875 11.625 
Q 12.109375 9.234375 16.796875 8.0625 
Q 21.484375 6.890625 26.703125 6.890625 
Q 35.15625 6.890625 40.078125 11.328125 
Q 45.015625 15.765625 45.015625 23.390625 
Q 45.015625 31 40.078125 35.4375 
Q 35.15625 39.890625 26.703125 39.890625 
Q 22.75 39.890625 18.8125 39.015625 
Q 14.890625 38.140625 10.796875 36.28125 
z
" id="DejaVuSans-53"/>
      </defs>
      <g transform="translate(31.096875 215.27234)scale(0.1 -0.1)">
       <use xlink:href="#DejaVuSans-48"/>
       <use x="63.623047" xlink:href="#DejaVuSans-46"/>
       <use x="95.410156" xlink:href="#DejaVuSans-53"/>
      </g>
     </g>
    </g>
    <g id="ytick_2">
     <g id="line2d_7">
      <g>
       <use style="stroke:#000000;stroke-width:0.8;" x="54" xlink:href="#m1dbafe0e95" y="170.634015"/>
      </g>
     </g>
     <g id="text_8">
      <!-- 0.6 -->
      <defs>
       <path d="M 33.015625 40.375 
Q 26.375 40.375 22.484375 35.828125 
Q 18.609375 31.296875 18.609375 23.390625 
Q 18.609375 15.53125 22.484375 10.953125 
Q 26.375 6.390625 33.015625 6.390625 
Q 39.65625 6.390625 43.53125 10.953125 
Q 47.40625 15.53125 47.40625 23.390625 
Q 47.40625 31.296875 43.53125 35.828125 
Q 39.65625 40.375 33.015625 40.375 
z
M 52.59375 71.296875 
L 52.59375 62.3125 
Q 48.875 64.0625 45.09375 64.984375 
Q 41.3125 65.921875 37.59375 65.921875 
Q 27.828125 65.921875 22.671875 59.328125 
Q 17.53125 52.734375 16.796875 39.40625 
Q 19.671875 43.65625 24.015625 45.921875 
Q 28.375 48.1875 33.59375 48.1875 
Q 44.578125 48.1875 50.953125 41.515625 
Q 57.328125 34.859375 57.328125 23.390625 
Q 57.328125 12.15625 50.6875 5.359375 
Q 44.046875 -1.421875 33.015625 -1.421875 
Q 20.359375 -1.421875 13.671875 8.265625 
Q 6.984375 17.96875 6.984375 36.375 
Q 6.984375 53.65625 15.1875 63.9375 
Q 23.390625 74.21875 37.203125 74.21875 
Q 40.921875 74.21875 44.703125 73.484375 
Q 48.484375 72.75 52.59375 71.296875 
z
" id="DejaVuSans-54"/>
      </defs>
      <g transform="translate(31.096875 174.433234)scale(0.1 -0.1)">
       <use xlink:href="#DejaVuSans-48"/>
       <use x="63.623047" xlink:href="#DejaVuSans-46"/>
       <use x="95.410156" xlink:href="#DejaVuSans-54"/>
      </g>
     </g>
    </g>
    <g id="ytick_3">
     <g id="line2d_8">
      <g>
       <use style="stroke:#000000;stroke-width:0.8;" x="54" xlink:href="#m1dbafe0e95" y="129.794909"/>
      </g>
     </g>
     <g id="text_9">
      <!-- 0.7 -->
      <defs>
       <path d="M 8.203125 72.90625 
L 55.078125 72.90625 
L 55.078125 68.703125 
L 28.609375 0 
L 18.3125 0 
L 43.21875 64.59375 
L 8.203125 64.59375 
z
" id="DejaVuSans-55"/>
      </defs>
      <g transform="translate(31.096875 133.594127)scale(0.1 -0.1)">
       <use xlink:href="#DejaVuSans-48"/>
       <use x="63.623047" xlink:href="#DejaVuSans-46"/>
       <use x="95.410156" xlink:href="#DejaVuSans-55"/>
      </g>
     </g>
    </g>
    <g id="ytick_4">
     <g id="line2d_9">
      <g>
       <use style="stroke:#000000;stroke-width:0.8;" x="54" xlink:href="#m1dbafe0e95" y="88.955802"/>
      </g>
     </g>
     <g id="text_10">
      <!-- 0.8 -->
      <defs>
       <path d="M 31.78125 34.625 
Q 24.75 34.625 20.71875 30.859375 
Q 16.703125 27.09375 16.703125 20.515625 
Q 16.703125 13.921875 20.71875 10.15625 
Q 24.75 6.390625 31.78125 6.390625 
Q 38.8125 6.390625 42.859375 10.171875 
Q 46.921875 13.96875 46.921875 20.515625 
Q 46.921875 27.09375 42.890625 30.859375 
Q 38.875 34.625 31.78125 34.625 
z
M 21.921875 38.8125 
Q 15.578125 40.375 12.03125 44.71875 
Q 8.5 49.078125 8.5 55.328125 
Q 8.5 64.0625 14.71875 69.140625 
Q 20.953125 74.21875 31.78125 74.21875 
Q 42.671875 74.21875 48.875 69.140625 
Q 55.078125 64.0625 55.078125 55.328125 
Q 55.078125 49.078125 51.53125 44.71875 
Q 48 40.375 41.703125 38.8125 
Q 48.828125 37.15625 52.796875 32.3125 
Q 56.78125 27.484375 56.78125 20.515625 
Q 56.78125 9.90625 50.3125 4.234375 
Q 43.84375 -1.421875 31.78125 -1.421875 
Q 19.734375 -1.421875 13.25 4.234375 
Q 6.78125 9.90625 6.78125 20.515625 
Q 6.78125 27.484375 10.78125 32.3125 
Q 14.796875 37.15625 21.921875 38.8125 
z
M 18.3125 54.390625 
Q 18.3125 48.734375 21.84375 45.5625 
Q 25.390625 42.390625 31.78125 42.390625 
Q 38.140625 42.390625 41.71875 45.5625 
Q 45.3125 48.734375 45.3125 54.390625 
Q 45.3125 60.0625 41.71875 63.234375 
Q 38.140625 66.40625 31.78125 66.40625 
Q 25.390625 66.40625 21.84375 63.234375 
Q 18.3125 60.0625 18.3125 54.390625 
z
" id="DejaVuSans-56"/>
      </defs>
      <g transform="translate(31.096875 92.755021)scale(0.1 -0.1)">
       <use xlink:href="#DejaVuSans-48"/>
       <use x="63.623047" xlink:href="#DejaVuSans-46"/>
       <use x="95.410156" xlink:href="#DejaVuSans-56"/>
      </g>
     </g>
    </g>
    <g id="ytick_5">
     <g id="line2d_10">
      <g>
       <use style="stroke:#000000;stroke-width:0.8;" x="54" xlink:href="#m1dbafe0e95" y="48.116696"/>
      </g>
     </g>
     <g id="text_11">
      <!-- 0.9 -->
      <defs>
       <path d="M 10.984375 1.515625 
L 10.984375 10.5 
Q 14.703125 8.734375 18.5 7.8125 
Q 22.3125 6.890625 25.984375 6.890625 
Q 35.75 6.890625 40.890625 13.453125 
Q 46.046875 20.015625 46.78125 33.40625 
Q 43.953125 29.203125 39.59375 26.953125 
Q 35.25 24.703125 29.984375 24.703125 
Q 19.046875 24.703125 12.671875 31.3125 
Q 6.296875 37.9375 6.296875 49.421875 
Q 6.296875 60.640625 12.9375 67.421875 
Q 19.578125 74.21875 30.609375 74.21875 
Q 43.265625 74.21875 49.921875 64.515625 
Q 56.59375 54.828125 56.59375 36.375 
Q 56.59375 19.140625 48.40625 8.859375 
Q 40.234375 -1.421875 26.421875 -1.421875 
Q 22.703125 -1.421875 18.890625 -0.6875 
Q 15.09375 0.046875 10.984375 1.515625 
z
M 30.609375 32.421875 
Q 37.25 32.421875 41.125 36.953125 
Q 45.015625 41.5 45.015625 49.421875 
Q 45.015625 57.28125 41.125 61.84375 
Q 37.25 66.40625 30.609375 66.40625 
Q 23.96875 66.40625 20.09375 61.84375 
Q 16.21875 57.28125 16.21875 49.421875 
Q 16.21875 41.5 20.09375 36.953125 
Q 23.96875 32.421875 30.609375 32.421875 
z
" id="DejaVuSans-57"/>
      </defs>
      <g transform="translate(31.096875 51.915915)scale(0.1 -0.1)">
       <use xlink:href="#DejaVuSans-48"/>
       <use x="63.623047" xlink:href="#DejaVuSans-46"/>
       <use x="95.410156" xlink:href="#DejaVuSans-57"/>
      </g>
     </g>
    </g>
    <g id="text_12">
     <!-- y(output) -->
     <defs>
      <path d="M 32.171875 -5.078125 
Q 28.375 -14.84375 24.75 -17.8125 
Q 21.140625 -20.796875 15.09375 -20.796875 
L 7.90625 -20.796875 
L 7.90625 -13.28125 
L 13.1875 -13.28125 
Q 16.890625 -13.28125 18.9375 -11.515625 
Q 21 -9.765625 23.484375 -3.21875 
L 25.09375 0.875 
L 2.984375 54.6875 
L 12.5 54.6875 
L 29.59375 11.921875 
L 46.6875 54.6875 
L 56.203125 54.6875 
z
" id="DejaVuSans-121"/>
      <path d="M 30.609375 48.390625 
Q 23.390625 48.390625 19.1875 42.75 
Q 14.984375 37.109375 14.984375 27.296875 
Q 14.984375 17.484375 19.15625 11.84375 
Q 23.34375 6.203125 30.609375 6.203125 
Q 37.796875 6.203125 41.984375 11.859375 
Q 46.1875 17.53125 46.1875 27.296875 
Q 46.1875 37.015625 41.984375 42.703125 
Q 37.796875 48.390625 30.609375 48.390625 
z
M 30.609375 56 
Q 42.328125 56 49.015625 48.375 
Q 55.71875 40.765625 55.71875 27.296875 
Q 55.71875 13.875 49.015625 6.21875 
Q 42.328125 -1.421875 30.609375 -1.421875 
Q 18.84375 -1.421875 12.171875 6.21875 
Q 5.515625 13.875 5.515625 27.296875 
Q 5.515625 40.765625 12.171875 48.375 
Q 18.84375 56 30.609375 56 
z
" id="DejaVuSans-111"/>
     </defs>
     <g transform="translate(25.017187 166.632344)rotate(-90)scale(0.1 -0.1)">
      <use xlink:href="#DejaVuSans-121"/>
      <use x="59.179688" xlink:href="#DejaVuSans-40"/>
      <use x="98.193359" xlink:href="#DejaVuSans-111"/>
      <use x="159.375" xlink:href="#DejaVuSans-117"/>
      <use x="222.753906" xlink:href="#DejaVuSans-116"/>
      <use x="261.962891" xlink:href="#DejaVuSans-112"/>
      <use x="325.439453" xlink:href="#DejaVuSans-117"/>
      <use x="388.818359" xlink:href="#DejaVuSans-116"/>
      <use x="428.027344" xlink:href="#DejaVuSans-41"/>
     </g>
    </g>
   </g>
   <g id="patch_3">
    <path d="M 54 252 
L 54 34.56 
" style="fill:none;stroke:#000000;stroke-linecap:square;stroke-linejoin:miter;stroke-width:0.8;"/>
   </g>
   <g id="patch_4">
    <path d="M 388.8 252 
L 388.8 34.56 
" style="fill:none;stroke:#000000;stroke-linecap:square;stroke-linejoin:miter;stroke-width:0.8;"/>
   </g>
   <g id="patch_5">
    <path d="M 54 252 
L 388.8 252 
" style="fill:none;stroke:#000000;stroke-linecap:square;stroke-linejoin:miter;stroke-width:0.8;"/>
   </g>
   <g id="patch_6">
    <path d="M 54 34.56 
L 388.8 34.56 
" style="fill:none;stroke:#000000;stroke-linecap:square;stroke-linejoin:miter;stroke-width:0.8;"/>
   </g>
  </g>
 </g>
 <defs>
  <clipPath id="p58cb4eebd2">
   <rect height="217.44" width="334.8" x="54" y="34.56"/>
  </clipPath>
 </defs>
</svg>
