<?xml version="1.0" encoding="utf-8" standalone="no"?>
<!DOCTYPE svg PUBLIC "-//W3C//DTD SVG 1.1//EN"
  "http://www.w3.org/Graphics/SVG/1.1/DTD/svg11.dtd">
<svg xmlns:xlink="http://www.w3.org/1999/xlink" width="648pt" height="504pt" viewBox="0 0 648 504" xmlns="http://www.w3.org/2000/svg" version="1.1">
 <metadata>
  <rdf:RDF xmlns:dc="http://purl.org/dc/elements/1.1/" xmlns:cc="http://creativecommons.org/ns#" xmlns:rdf="http://www.w3.org/1999/02/22-rdf-syntax-ns#">
   <cc:Work>
    <dc:type rdf:resource="http://purl.org/dc/dcmitype/StillImage"/>
    <dc:date>2022-05-05T18:29:28.996908</dc:date>
    <dc:format>image/svg+xml</dc:format>
    <dc:creator>
     <cc:Agent>
      <dc:title>Matplotlib v3.5.1, https://matplotlib.org/</dc:title>
     </cc:Agent>
    </dc:creator>
   </cc:Work>
  </rdf:RDF>
 </metadata>
 <defs>
  <style type="text/css">*{stroke-linejoin: round; stroke-linecap: butt}</style>
 </defs>
 <g id="figure_1">
  <g id="patch_1">
   <path d="M 0 504 
L 648 504 
L 648 0 
L 0 0 
L 0 504 
z
" style="fill: none"/>
  </g>
  <g id="axes_1">
   <g id="patch_2">
    <path d="M 81 441 
L 583.2 441 
L 583.2 60.48 
L 81 60.48 
z
" style="fill: #ffffff"/>
   </g>
   <g id="PathCollection_1">
    <defs>
     <path id="mf0e4558ed1" d="M 0 3 
C 0.795609 3 1.55874 2.683901 2.12132 2.12132 
C 2.683901 1.55874 3 0.795609 3 0 
C 3 -0.795609 2.683901 -1.55874 2.12132 -2.12132 
C 1.55874 -2.683901 0.795609 -3 0 -3 
C -0.795609 -3 -1.55874 -2.683901 -2.12132 -2.12132 
C -2.683901 -1.55874 -3 -0.795609 -3 0 
C -3 0.795609 -2.683901 1.55874 -2.12132 2.12132 
C -1.55874 2.683901 -0.795609 3 0 3 
z
" style="stroke: #1f77b4"/>
    </defs>
    <g clip-path="url(#p3a853c612c)">
     <use xlink:href="#mf0e4558ed1" x="103.827273" y="423.703636" style="fill: #1f77b4; stroke: #1f77b4"/>
     <use xlink:href="#mf0e4558ed1" x="234.268831" y="192.372679" style="fill: #1f77b4; stroke: #1f77b4"/>
     <use xlink:href="#mf0e4558ed1" x="342.97013" y="300.327126" style="fill: #1f77b4; stroke: #1f77b4"/>
     <use xlink:href="#mf0e4558ed1" x="408.190909" y="254.060934" style="fill: #1f77b4; stroke: #1f77b4"/>
     <use xlink:href="#mf0e4558ed1" x="495.151948" y="284.905062" style="fill: #1f77b4; stroke: #1f77b4"/>
     <use xlink:href="#mf0e4558ed1" x="560.372727" y="377.437445" style="fill: #1f77b4; stroke: #1f77b4"/>
    </g>
   </g>
   <g id="matplotlib.axis_1">
    <g id="xtick_1">
     <g id="line2d_1">
      <defs>
       <path id="m3813d59a99" d="M 0 0 
L 0 3.5 
" style="stroke: #000000; stroke-width: 0.8"/>
      </defs>
      <g>
       <use xlink:href="#m3813d59a99" x="103.827273" y="441" style="stroke: #000000; stroke-width: 0.8"/>
      </g>
     </g>
     <g id="text_1">
      <!-- −1.0 -->
      <g transform="translate(91.685866 455.598437)scale(0.1 -0.1)">
       <defs>
        <path id="DejaVuSans-2212" d="M 678 2272 
L 4684 2272 
L 4684 1741 
L 678 1741 
L 678 2272 
z
" transform="scale(0.015625)"/>
        <path id="DejaVuSans-31" d="M 794 531 
L 1825 531 
L 1825 4091 
L 703 3866 
L 703 4441 
L 1819 4666 
L 2450 4666 
L 2450 531 
L 3481 531 
L 3481 0 
L 794 0 
L 794 531 
z
" transform="scale(0.015625)"/>
        <path id="DejaVuSans-2e" d="M 684 794 
L 1344 794 
L 1344 0 
L 684 0 
L 684 794 
z
" transform="scale(0.015625)"/>
        <path id="DejaVuSans-30" d="M 2034 4250 
Q 1547 4250 1301 3770 
Q 1056 3291 1056 2328 
Q 1056 1369 1301 889 
Q 1547 409 2034 409 
Q 2525 409 2770 889 
Q 3016 1369 3016 2328 
Q 3016 3291 2770 3770 
Q 2525 4250 2034 4250 
z
M 2034 4750 
Q 2819 4750 3233 4129 
Q 3647 3509 3647 2328 
Q 3647 1150 3233 529 
Q 2819 -91 2034 -91 
Q 1250 -91 836 529 
Q 422 1150 422 2328 
Q 422 3509 836 4129 
Q 1250 4750 2034 4750 
z
" transform="scale(0.015625)"/>
       </defs>
       <use xlink:href="#DejaVuSans-2212"/>
       <use xlink:href="#DejaVuSans-31" x="83.789062"/>
       <use xlink:href="#DejaVuSans-2e" x="147.412109"/>
       <use xlink:href="#DejaVuSans-30" x="179.199219"/>
      </g>
     </g>
    </g>
    <g id="xtick_2">
     <g id="line2d_2">
      <g>
       <use xlink:href="#m3813d59a99" x="212.528571" y="441" style="stroke: #000000; stroke-width: 0.8"/>
      </g>
     </g>
     <g id="text_2">
      <!-- −0.5 -->
      <g transform="translate(200.387165 455.598437)scale(0.1 -0.1)">
       <defs>
        <path id="DejaVuSans-35" d="M 691 4666 
L 3169 4666 
L 3169 4134 
L 1269 4134 
L 1269 2991 
Q 1406 3038 1543 3061 
Q 1681 3084 1819 3084 
Q 2600 3084 3056 2656 
Q 3513 2228 3513 1497 
Q 3513 744 3044 326 
Q 2575 -91 1722 -91 
Q 1428 -91 1123 -41 
Q 819 9 494 109 
L 494 744 
Q 775 591 1075 516 
Q 1375 441 1709 441 
Q 2250 441 2565 725 
Q 2881 1009 2881 1497 
Q 2881 1984 2565 2268 
Q 2250 2553 1709 2553 
Q 1456 2553 1204 2497 
Q 953 2441 691 2322 
L 691 4666 
z
" transform="scale(0.015625)"/>
       </defs>
       <use xlink:href="#DejaVuSans-2212"/>
       <use xlink:href="#DejaVuSans-30" x="83.789062"/>
       <use xlink:href="#DejaVuSans-2e" x="147.412109"/>
       <use xlink:href="#DejaVuSans-35" x="179.199219"/>
      </g>
     </g>
    </g>
    <g id="xtick_3">
     <g id="line2d_3">
      <g>
       <use xlink:href="#m3813d59a99" x="321.22987" y="441" style="stroke: #000000; stroke-width: 0.8"/>
      </g>
     </g>
     <g id="text_3">
      <!-- 0.0 -->
      <g transform="translate(313.278308 455.598437)scale(0.1 -0.1)">
       <use xlink:href="#DejaVuSans-30"/>
       <use xlink:href="#DejaVuSans-2e" x="63.623047"/>
       <use xlink:href="#DejaVuSans-30" x="95.410156"/>
      </g>
     </g>
    </g>
    <g id="xtick_4">
     <g id="line2d_4">
      <g>
       <use xlink:href="#m3813d59a99" x="429.931169" y="441" style="stroke: #000000; stroke-width: 0.8"/>
      </g>
     </g>
     <g id="text_4">
      <!-- 0.5 -->
      <g transform="translate(421.979606 455.598437)scale(0.1 -0.1)">
       <use xlink:href="#DejaVuSans-30"/>
       <use xlink:href="#DejaVuSans-2e" x="63.623047"/>
       <use xlink:href="#DejaVuSans-35" x="95.410156"/>
      </g>
     </g>
    </g>
    <g id="xtick_5">
     <g id="line2d_5">
      <g>
       <use xlink:href="#m3813d59a99" x="538.632468" y="441" style="stroke: #000000; stroke-width: 0.8"/>
      </g>
     </g>
     <g id="text_5">
      <!-- 1.0 -->
      <g transform="translate(530.680905 455.598437)scale(0.1 -0.1)">
       <use xlink:href="#DejaVuSans-31"/>
       <use xlink:href="#DejaVuSans-2e" x="63.623047"/>
       <use xlink:href="#DejaVuSans-30" x="95.410156"/>
      </g>
     </g>
    </g>
   </g>
   <g id="matplotlib.axis_2">
    <g id="ytick_1">
     <g id="line2d_6">
      <defs>
       <path id="m6eeac4a5e8" d="M 0 0 
L -3.5 0 
" style="stroke: #000000; stroke-width: 0.8"/>
      </defs>
      <g>
       <use xlink:href="#m6eeac4a5e8" x="81" y="423.703636" style="stroke: #000000; stroke-width: 0.8"/>
      </g>
     </g>
     <g id="text_6">
      <!-- −1.0 -->
      <g transform="translate(49.717187 427.502855)scale(0.1 -0.1)">
       <use xlink:href="#DejaVuSans-2212"/>
       <use xlink:href="#DejaVuSans-31" x="83.789062"/>
       <use xlink:href="#DejaVuSans-2e" x="147.412109"/>
       <use xlink:href="#DejaVuSans-30" x="179.199219"/>
      </g>
     </g>
    </g>
    <g id="ytick_2">
     <g id="line2d_7">
      <g>
       <use xlink:href="#m6eeac4a5e8" x="81" y="346.593317" style="stroke: #000000; stroke-width: 0.8"/>
      </g>
     </g>
     <g id="text_7">
      <!-- −0.5 -->
      <g transform="translate(49.717187 350.392536)scale(0.1 -0.1)">
       <use xlink:href="#DejaVuSans-2212"/>
       <use xlink:href="#DejaVuSans-30" x="83.789062"/>
       <use xlink:href="#DejaVuSans-2e" x="147.412109"/>
       <use xlink:href="#DejaVuSans-35" x="179.199219"/>
      </g>
     </g>
    </g>
    <g id="ytick_3">
     <g id="line2d_8">
      <g>
       <use xlink:href="#m6eeac4a5e8" x="81" y="269.482998" style="stroke: #000000; stroke-width: 0.8"/>
      </g>
     </g>
     <g id="text_8">
      <!-- 0.0 -->
      <g transform="translate(58.096875 273.282217)scale(0.1 -0.1)">
       <use xlink:href="#DejaVuSans-30"/>
       <use xlink:href="#DejaVuSans-2e" x="63.623047"/>
       <use xlink:href="#DejaVuSans-30" x="95.410156"/>
      </g>
     </g>
    </g>
    <g id="ytick_4">
     <g id="line2d_9">
      <g>
       <use xlink:href="#m6eeac4a5e8" x="81" y="192.372679" style="stroke: #000000; stroke-width: 0.8"/>
      </g>
     </g>
     <g id="text_9">
      <!-- 0.5 -->
      <g transform="translate(58.096875 196.171898)scale(0.1 -0.1)">
       <use xlink:href="#DejaVuSans-30"/>
       <use xlink:href="#DejaVuSans-2e" x="63.623047"/>
       <use xlink:href="#DejaVuSans-35" x="95.410156"/>
      </g>
     </g>
    </g>
    <g id="ytick_5">
     <g id="line2d_10">
      <g>
       <use xlink:href="#m6eeac4a5e8" x="81" y="115.26236" style="stroke: #000000; stroke-width: 0.8"/>
      </g>
     </g>
     <g id="text_10">
      <!-- 1.0 -->
      <g transform="translate(58.096875 119.061578)scale(0.1 -0.1)">
       <use xlink:href="#DejaVuSans-31"/>
       <use xlink:href="#DejaVuSans-2e" x="63.623047"/>
       <use xlink:href="#DejaVuSans-30" x="95.410156"/>
      </g>
     </g>
    </g>
   </g>
   <g id="line2d_11">
    <path d="M 103.827273 423.703636 
L 106.121471 394.423037 
L 108.415669 366.820544 
L 110.709868 340.840909 
L 113.004066 316.429932 
L 115.298264 293.534452 
L 117.592462 272.102343 
L 119.886661 252.082497 
L 122.180859 233.424825 
L 124.475057 216.080238 
L 126.769255 200.000643 
L 129.063454 185.138937 
L 131.357652 171.448989 
L 133.65185 158.88564 
L 135.946048 147.404689 
L 138.240247 136.962886 
L 140.534445 127.517921 
L 142.828643 119.028417 
L 145.122841 111.45392 
L 147.41704 104.75489 
L 149.711238 98.892691 
L 152.005436 93.829586 
L 154.299635 89.528722 
L 156.593833 85.954124 
L 158.888031 83.070688 
L 161.182229 80.844169 
L 163.476428 79.241171 
L 165.770626 78.229143 
L 168.064824 77.776364 
L 170.359022 77.851938 
L 172.653221 78.425783 
L 174.947419 79.468625 
L 177.241617 80.951983 
L 179.535815 82.848165 
L 181.830014 85.130259 
L 184.124212 87.772121 
L 186.41841 90.748367 
L 188.712608 94.034366 
L 191.006807 97.606229 
L 193.301005 101.440798 
L 197.889402 109.809048 
L 202.477798 118.968191 
L 207.066195 128.758457 
L 211.654591 139.030942 
L 218.537186 155.044064 
L 239.18497 203.750132 
L 246.067565 219.118262 
L 250.655962 228.895672 
L 255.244358 238.22738 
L 259.832755 247.061118 
L 264.421151 255.35216 
L 269.009548 263.063028 
L 273.597944 270.163211 
L 278.186341 276.628866 
L 282.774737 282.442539 
L 287.363134 287.592868 
L 289.657332 289.917323 
L 291.95153 292.074296 
L 294.245729 294.063953 
L 296.539927 295.886785 
L 298.834125 297.543602 
L 301.128323 299.035522 
L 303.422522 300.363963 
L 305.71672 301.530633 
L 308.010918 302.537522 
L 310.305116 303.386893 
L 312.599315 304.081272 
L 314.893513 304.623438 
L 317.187711 305.016417 
L 319.48191 305.263472 
L 321.776108 305.368092 
L 324.070306 305.333983 
L 326.364504 305.165063 
L 328.658703 304.865449 
L 330.952901 304.439449 
L 333.247099 303.891554 
L 337.835496 302.448892 
L 342.423892 300.576686 
L 347.012289 298.316492 
L 351.600685 295.711914 
L 356.189082 292.80831 
L 360.777478 289.652511 
L 367.660073 284.551212 
L 376.836866 277.321523 
L 390.602056 266.367832 
L 397.484651 261.201934 
L 402.073047 257.982752 
L 406.661444 254.996788 
L 411.24984 252.287934 
L 415.838237 249.898081 
L 420.426633 247.866827 
L 425.01503 246.231193 
L 429.603426 245.025329 
L 431.897624 244.593376 
L 434.191823 244.280224 
L 436.486021 244.089207 
L 438.780219 244.023424 
L 441.074418 244.085731 
L 443.368616 244.278734 
L 445.662814 244.604776 
L 447.957012 245.065934 
L 450.251211 245.664002 
L 452.545409 246.40049 
L 454.839607 247.276608 
L 457.133805 248.293262 
L 459.428004 249.451043 
L 461.722202 250.750218 
L 464.0164 252.19072 
L 466.310598 253.772141 
L 468.604797 255.493722 
L 473.193193 259.352519 
L 477.78159 263.75367 
L 482.369986 268.677545 
L 486.958383 274.098027 
L 491.546779 279.982224 
L 496.135176 286.290186 
L 500.723572 292.974607 
L 505.311969 299.980544 
L 512.194564 310.952513 
L 535.136546 348.208592 
L 539.724943 355.026679 
L 544.313339 361.349893 
L 548.901736 367.036283 
L 551.195934 369.593395 
L 553.490132 371.933215 
L 555.784331 374.034947 
L 558.078529 375.877094 
L 560.372727 377.437445 
L 560.372727 377.437445 
" clip-path="url(#p3a853c612c)" style="fill: none; stroke: #1f77b4; stroke-width: 1.5; stroke-linecap: square"/>
   </g>
   <g id="line2d_12">
    <path d="M 103.827273 423.703636 
L 108.415669 396.550961 
L 113.004066 371.249826 
L 117.592462 347.747447 
L 122.180859 325.99104 
L 126.769255 305.927822 
L 131.357652 287.505009 
L 135.946048 270.669817 
L 140.534445 255.369462 
L 142.828643 248.278354 
L 145.122841 241.551161 
L 147.41704 235.181285 
L 149.711238 229.162129 
L 152.005436 223.487095 
L 154.299635 218.149584 
L 156.593833 213.142998 
L 158.888031 208.46074 
L 161.182229 204.096212 
L 163.476428 200.042815 
L 165.770626 196.293952 
L 168.064824 192.843025 
L 170.359022 189.683435 
L 172.653221 186.808585 
L 174.947419 184.211877 
L 177.241617 181.886712 
L 179.535815 179.826493 
L 181.830014 178.024623 
L 184.124212 176.474502 
L 186.41841 175.169532 
L 188.712608 174.103117 
L 191.006807 173.268658 
L 193.301005 172.659557 
L 195.595203 172.269215 
L 197.889402 172.091036 
L 200.1836 172.118421 
L 202.477798 172.344771 
L 204.771996 172.76349 
L 207.066195 173.367979 
L 209.360393 174.15164 
L 211.654591 175.107875 
L 213.948789 176.230087 
L 216.242988 177.511677 
L 218.537186 178.946047 
L 220.831384 180.526599 
L 225.419781 184.099858 
L 230.008177 188.178671 
L 234.596574 192.710253 
L 239.18497 197.641822 
L 243.773367 202.920592 
L 248.361763 208.49378 
L 255.244358 217.290133 
L 264.421151 229.556418 
L 282.774737 254.349414 
L 289.657332 263.191975 
L 294.245729 268.806238 
L 298.834125 274.134297 
L 303.422522 279.12337 
L 308.010918 283.720671 
L 312.599315 287.873418 
L 317.187711 291.528826 
L 319.48191 293.153533 
L 321.776108 294.634111 
L 324.070306 295.963963 
L 326.364504 297.136491 
L 328.658703 298.145096 
L 330.952901 298.983181 
L 333.247099 299.644147 
L 335.541297 300.121397 
L 337.835496 300.408332 
L 340.129694 300.498355 
L 342.423892 300.384868 
L 344.71809 300.062661 
L 347.012289 299.538145 
L 349.306487 298.823521 
L 351.600685 297.931031 
L 353.894884 296.872918 
L 356.189082 295.661424 
L 360.777478 292.827267 
L 365.365875 289.526503 
L 369.954271 285.857073 
L 374.542668 281.91692 
L 383.719461 273.616215 
L 390.602056 267.408483 
L 395.190452 263.462112 
L 399.778849 259.7837 
L 404.367245 256.47119 
L 408.955642 253.622438 
L 411.24984 252.39719 
L 413.544038 251.305899 
L 415.838237 250.346759 
L 418.132435 249.517964 
L 420.426633 248.817707 
L 422.720831 248.244181 
L 425.01503 247.795582 
L 427.309228 247.470102 
L 429.603426 247.265935 
L 431.897624 247.181275 
L 434.191823 247.214315 
L 436.486021 247.363249 
L 438.780219 247.626271 
L 443.368616 248.487353 
L 447.957012 249.78311 
L 452.545409 251.499093 
L 457.133805 253.620849 
L 461.722202 256.13393 
L 466.310598 259.023884 
L 470.898995 262.276261 
L 475.487392 265.87661 
L 480.075788 269.810481 
L 484.664185 274.063424 
L 489.252581 278.620987 
L 493.840978 283.468721 
L 498.429374 288.592174 
L 503.017771 293.976897 
L 507.606167 299.608439 
L 514.488762 308.486927 
L 521.371357 317.839473 
L 528.253952 327.617307 
L 535.136546 337.771659 
L 544.313339 351.812194 
L 553.490132 366.319787 
L 560.372727 377.437445 
L 560.372727 377.437445 
" clip-path="url(#p3a853c612c)" style="fill: none; stroke: #ff7f0e; stroke-width: 1.5; stroke-linecap: square"/>
   </g>
   <g id="line2d_13">
    <path d="M 103.827273 423.703636 
L 232.302376 195.86008 
L 234.596574 192.69817 
L 342.423892 299.784641 
L 344.71809 299.087161 
L 406.661444 255.145903 
L 408.955642 254.332176 
L 493.840978 284.440075 
L 496.135176 286.300022 
L 560.372727 377.437445 
L 560.372727 377.437445 
" clip-path="url(#p3a853c612c)" style="fill: none; stroke: #2ca02c; stroke-width: 2; stroke-linecap: square"/>
   </g>
   <g id="line2d_14">
    <path d="M 103.827273 423.703636 
L 168.064824 423.703636 
L 170.359022 192.372679 
L 287.363134 192.372679 
L 289.657332 300.327126 
L 374.542668 300.327126 
L 376.836866 254.060934 
L 450.251211 254.060934 
L 452.545409 284.905062 
L 525.959753 284.905062 
L 528.253952 377.437445 
L 560.372727 377.437445 
L 560.372727 377.437445 
" clip-path="url(#p3a853c612c)" style="fill: none; stroke: #d62728; stroke-width: 1.5; stroke-linecap: square"/>
   </g>
   <g id="line2d_15">
    <path d="M 103.827273 423.699952 
L 232.302376 195.943672 
L 234.596574 192.782451 
L 342.423892 299.547331 
L 344.71809 298.858728 
L 450.251211 224.634768 
L 452.545409 224.65895 
L 560.372727 377.355048 
L 560.372727 377.355048 
" clip-path="url(#p3a853c612c)" style="fill: none; stroke-dasharray: 2,3.3; stroke-dashoffset: 0; stroke: #ffff00; stroke-width: 2"/>
   </g>
   <g id="patch_3">
    <path d="M 81 441 
L 81 60.48 
" style="fill: none; stroke: #000000; stroke-width: 0.8; stroke-linejoin: miter; stroke-linecap: square"/>
   </g>
   <g id="patch_4">
    <path d="M 583.2 441 
L 583.2 60.48 
" style="fill: none; stroke: #000000; stroke-width: 0.8; stroke-linejoin: miter; stroke-linecap: square"/>
   </g>
   <g id="patch_5">
    <path d="M 81 441 
L 583.2 441 
" style="fill: none; stroke: #000000; stroke-width: 0.8; stroke-linejoin: miter; stroke-linecap: square"/>
   </g>
   <g id="patch_6">
    <path d="M 81 60.48 
L 583.2 60.48 
" style="fill: none; stroke: #000000; stroke-width: 0.8; stroke-linejoin: miter; stroke-linecap: square"/>
   </g>
   <g id="legend_1">
    <g id="patch_7">
     <path d="M 469.159375 156.54875 
L 576.2 156.54875 
Q 578.2 156.54875 578.2 154.54875 
L 578.2 67.48 
Q 578.2 65.48 576.2 65.48 
L 469.159375 65.48 
Q 467.159375 65.48 467.159375 67.48 
L 467.159375 154.54875 
Q 467.159375 156.54875 469.159375 156.54875 
z
" style="fill: #ffffff; opacity: 0.8; stroke: #cccccc; stroke-linejoin: miter"/>
    </g>
    <g id="PathCollection_2">
     <g>
      <use xlink:href="#mf0e4558ed1" x="481.159375" y="74.453438" style="fill: #1f77b4; stroke: #1f77b4"/>
     </g>
    </g>
    <g id="text_11">
     <!-- points -->
     <g transform="translate(499.159375 77.078438)scale(0.1 -0.1)">
      <defs>
       <path id="DejaVuSans-70" d="M 1159 525 
L 1159 -1331 
L 581 -1331 
L 581 3500 
L 1159 3500 
L 1159 2969 
Q 1341 3281 1617 3432 
Q 1894 3584 2278 3584 
Q 2916 3584 3314 3078 
Q 3713 2572 3713 1747 
Q 3713 922 3314 415 
Q 2916 -91 2278 -91 
Q 1894 -91 1617 61 
Q 1341 213 1159 525 
z
M 3116 1747 
Q 3116 2381 2855 2742 
Q 2594 3103 2138 3103 
Q 1681 3103 1420 2742 
Q 1159 2381 1159 1747 
Q 1159 1113 1420 752 
Q 1681 391 2138 391 
Q 2594 391 2855 752 
Q 3116 1113 3116 1747 
z
" transform="scale(0.015625)"/>
       <path id="DejaVuSans-6f" d="M 1959 3097 
Q 1497 3097 1228 2736 
Q 959 2375 959 1747 
Q 959 1119 1226 758 
Q 1494 397 1959 397 
Q 2419 397 2687 759 
Q 2956 1122 2956 1747 
Q 2956 2369 2687 2733 
Q 2419 3097 1959 3097 
z
M 1959 3584 
Q 2709 3584 3137 3096 
Q 3566 2609 3566 1747 
Q 3566 888 3137 398 
Q 2709 -91 1959 -91 
Q 1206 -91 779 398 
Q 353 888 353 1747 
Q 353 2609 779 3096 
Q 1206 3584 1959 3584 
z
" transform="scale(0.015625)"/>
       <path id="DejaVuSans-69" d="M 603 3500 
L 1178 3500 
L 1178 0 
L 603 0 
L 603 3500 
z
M 603 4863 
L 1178 4863 
L 1178 4134 
L 603 4134 
L 603 4863 
z
" transform="scale(0.015625)"/>
       <path id="DejaVuSans-6e" d="M 3513 2113 
L 3513 0 
L 2938 0 
L 2938 2094 
Q 2938 2591 2744 2837 
Q 2550 3084 2163 3084 
Q 1697 3084 1428 2787 
Q 1159 2491 1159 1978 
L 1159 0 
L 581 0 
L 581 3500 
L 1159 3500 
L 1159 2956 
Q 1366 3272 1645 3428 
Q 1925 3584 2291 3584 
Q 2894 3584 3203 3211 
Q 3513 2838 3513 2113 
z
" transform="scale(0.015625)"/>
       <path id="DejaVuSans-74" d="M 1172 4494 
L 1172 3500 
L 2356 3500 
L 2356 3053 
L 1172 3053 
L 1172 1153 
Q 1172 725 1289 603 
Q 1406 481 1766 481 
L 2356 481 
L 2356 0 
L 1766 0 
Q 1100 0 847 248 
Q 594 497 594 1153 
L 594 3053 
L 172 3053 
L 172 3500 
L 594 3500 
L 594 4494 
L 1172 4494 
z
" transform="scale(0.015625)"/>
       <path id="DejaVuSans-73" d="M 2834 3397 
L 2834 2853 
Q 2591 2978 2328 3040 
Q 2066 3103 1784 3103 
Q 1356 3103 1142 2972 
Q 928 2841 928 2578 
Q 928 2378 1081 2264 
Q 1234 2150 1697 2047 
L 1894 2003 
Q 2506 1872 2764 1633 
Q 3022 1394 3022 966 
Q 3022 478 2636 193 
Q 2250 -91 1575 -91 
Q 1294 -91 989 -36 
Q 684 19 347 128 
L 347 722 
Q 666 556 975 473 
Q 1284 391 1588 391 
Q 1994 391 2212 530 
Q 2431 669 2431 922 
Q 2431 1156 2273 1281 
Q 2116 1406 1581 1522 
L 1381 1569 
Q 847 1681 609 1914 
Q 372 2147 372 2553 
Q 372 3047 722 3315 
Q 1072 3584 1716 3584 
Q 2034 3584 2315 3537 
Q 2597 3491 2834 3397 
z
" transform="scale(0.015625)"/>
      </defs>
      <use xlink:href="#DejaVuSans-70"/>
      <use xlink:href="#DejaVuSans-6f" x="63.476562"/>
      <use xlink:href="#DejaVuSans-69" x="124.658203"/>
      <use xlink:href="#DejaVuSans-6e" x="152.441406"/>
      <use xlink:href="#DejaVuSans-74" x="215.820312"/>
      <use xlink:href="#DejaVuSans-73" x="255.029297"/>
     </g>
    </g>
    <g id="line2d_16">
     <path d="M 471.159375 88.256563 
L 481.159375 88.256563 
L 491.159375 88.256563 
" style="fill: none; stroke: #1f77b4; stroke-width: 1.5; stroke-linecap: square"/>
    </g>
    <g id="text_12">
     <!-- polynomial-reg -->
     <g transform="translate(499.159375 91.756563)scale(0.1 -0.1)">
      <defs>
       <path id="DejaVuSans-6c" d="M 603 4863 
L 1178 4863 
L 1178 0 
L 603 0 
L 603 4863 
z
" transform="scale(0.015625)"/>
       <path id="DejaVuSans-79" d="M 2059 -325 
Q 1816 -950 1584 -1140 
Q 1353 -1331 966 -1331 
L 506 -1331 
L 506 -850 
L 844 -850 
Q 1081 -850 1212 -737 
Q 1344 -625 1503 -206 
L 1606 56 
L 191 3500 
L 800 3500 
L 1894 763 
L 2988 3500 
L 3597 3500 
L 2059 -325 
z
" transform="scale(0.015625)"/>
       <path id="DejaVuSans-6d" d="M 3328 2828 
Q 3544 3216 3844 3400 
Q 4144 3584 4550 3584 
Q 5097 3584 5394 3201 
Q 5691 2819 5691 2113 
L 5691 0 
L 5113 0 
L 5113 2094 
Q 5113 2597 4934 2840 
Q 4756 3084 4391 3084 
Q 3944 3084 3684 2787 
Q 3425 2491 3425 1978 
L 3425 0 
L 2847 0 
L 2847 2094 
Q 2847 2600 2669 2842 
Q 2491 3084 2119 3084 
Q 1678 3084 1418 2786 
Q 1159 2488 1159 1978 
L 1159 0 
L 581 0 
L 581 3500 
L 1159 3500 
L 1159 2956 
Q 1356 3278 1631 3431 
Q 1906 3584 2284 3584 
Q 2666 3584 2933 3390 
Q 3200 3197 3328 2828 
z
" transform="scale(0.015625)"/>
       <path id="DejaVuSans-61" d="M 2194 1759 
Q 1497 1759 1228 1600 
Q 959 1441 959 1056 
Q 959 750 1161 570 
Q 1363 391 1709 391 
Q 2188 391 2477 730 
Q 2766 1069 2766 1631 
L 2766 1759 
L 2194 1759 
z
M 3341 1997 
L 3341 0 
L 2766 0 
L 2766 531 
Q 2569 213 2275 61 
Q 1981 -91 1556 -91 
Q 1019 -91 701 211 
Q 384 513 384 1019 
Q 384 1609 779 1909 
Q 1175 2209 1959 2209 
L 2766 2209 
L 2766 2266 
Q 2766 2663 2505 2880 
Q 2244 3097 1772 3097 
Q 1472 3097 1187 3025 
Q 903 2953 641 2809 
L 641 3341 
Q 956 3463 1253 3523 
Q 1550 3584 1831 3584 
Q 2591 3584 2966 3190 
Q 3341 2797 3341 1997 
z
" transform="scale(0.015625)"/>
       <path id="DejaVuSans-2d" d="M 313 2009 
L 1997 2009 
L 1997 1497 
L 313 1497 
L 313 2009 
z
" transform="scale(0.015625)"/>
       <path id="DejaVuSans-72" d="M 2631 2963 
Q 2534 3019 2420 3045 
Q 2306 3072 2169 3072 
Q 1681 3072 1420 2755 
Q 1159 2438 1159 1844 
L 1159 0 
L 581 0 
L 581 3500 
L 1159 3500 
L 1159 2956 
Q 1341 3275 1631 3429 
Q 1922 3584 2338 3584 
Q 2397 3584 2469 3576 
Q 2541 3569 2628 3553 
L 2631 2963 
z
" transform="scale(0.015625)"/>
       <path id="DejaVuSans-65" d="M 3597 1894 
L 3597 1613 
L 953 1613 
Q 991 1019 1311 708 
Q 1631 397 2203 397 
Q 2534 397 2845 478 
Q 3156 559 3463 722 
L 3463 178 
Q 3153 47 2828 -22 
Q 2503 -91 2169 -91 
Q 1331 -91 842 396 
Q 353 884 353 1716 
Q 353 2575 817 3079 
Q 1281 3584 2069 3584 
Q 2775 3584 3186 3129 
Q 3597 2675 3597 1894 
z
M 3022 2063 
Q 3016 2534 2758 2815 
Q 2500 3097 2075 3097 
Q 1594 3097 1305 2825 
Q 1016 2553 972 2059 
L 3022 2063 
z
" transform="scale(0.015625)"/>
       <path id="DejaVuSans-67" d="M 2906 1791 
Q 2906 2416 2648 2759 
Q 2391 3103 1925 3103 
Q 1463 3103 1205 2759 
Q 947 2416 947 1791 
Q 947 1169 1205 825 
Q 1463 481 1925 481 
Q 2391 481 2648 825 
Q 2906 1169 2906 1791 
z
M 3481 434 
Q 3481 -459 3084 -895 
Q 2688 -1331 1869 -1331 
Q 1566 -1331 1297 -1286 
Q 1028 -1241 775 -1147 
L 775 -588 
Q 1028 -725 1275 -790 
Q 1522 -856 1778 -856 
Q 2344 -856 2625 -561 
Q 2906 -266 2906 331 
L 2906 616 
Q 2728 306 2450 153 
Q 2172 0 1784 0 
Q 1141 0 747 490 
Q 353 981 353 1791 
Q 353 2603 747 3093 
Q 1141 3584 1784 3584 
Q 2172 3584 2450 3431 
Q 2728 3278 2906 2969 
L 2906 3500 
L 3481 3500 
L 3481 434 
z
" transform="scale(0.015625)"/>
      </defs>
      <use xlink:href="#DejaVuSans-70"/>
      <use xlink:href="#DejaVuSans-6f" x="63.476562"/>
      <use xlink:href="#DejaVuSans-6c" x="124.658203"/>
      <use xlink:href="#DejaVuSans-79" x="152.441406"/>
      <use xlink:href="#DejaVuSans-6e" x="211.621094"/>
      <use xlink:href="#DejaVuSans-6f" x="275"/>
      <use xlink:href="#DejaVuSans-6d" x="336.181641"/>
      <use xlink:href="#DejaVuSans-69" x="433.59375"/>
      <use xlink:href="#DejaVuSans-61" x="461.376953"/>
      <use xlink:href="#DejaVuSans-6c" x="522.65625"/>
      <use xlink:href="#DejaVuSans-2d" x="550.439453"/>
      <use xlink:href="#DejaVuSans-72" x="586.523438"/>
      <use xlink:href="#DejaVuSans-65" x="625.386719"/>
      <use xlink:href="#DejaVuSans-67" x="686.910156"/>
     </g>
    </g>
    <g id="line2d_17">
     <path d="M 471.159375 102.934688 
L 481.159375 102.934688 
L 491.159375 102.934688 
" style="fill: none; stroke: #ff7f0e; stroke-width: 1.5; stroke-linecap: square"/>
    </g>
    <g id="text_13">
     <!-- cubic-spline -->
     <g transform="translate(499.159375 106.434688)scale(0.1 -0.1)">
      <defs>
       <path id="DejaVuSans-63" d="M 3122 3366 
L 3122 2828 
Q 2878 2963 2633 3030 
Q 2388 3097 2138 3097 
Q 1578 3097 1268 2742 
Q 959 2388 959 1747 
Q 959 1106 1268 751 
Q 1578 397 2138 397 
Q 2388 397 2633 464 
Q 2878 531 3122 666 
L 3122 134 
Q 2881 22 2623 -34 
Q 2366 -91 2075 -91 
Q 1284 -91 818 406 
Q 353 903 353 1747 
Q 353 2603 823 3093 
Q 1294 3584 2113 3584 
Q 2378 3584 2631 3529 
Q 2884 3475 3122 3366 
z
" transform="scale(0.015625)"/>
       <path id="DejaVuSans-75" d="M 544 1381 
L 544 3500 
L 1119 3500 
L 1119 1403 
Q 1119 906 1312 657 
Q 1506 409 1894 409 
Q 2359 409 2629 706 
Q 2900 1003 2900 1516 
L 2900 3500 
L 3475 3500 
L 3475 0 
L 2900 0 
L 2900 538 
Q 2691 219 2414 64 
Q 2138 -91 1772 -91 
Q 1169 -91 856 284 
Q 544 659 544 1381 
z
M 1991 3584 
L 1991 3584 
z
" transform="scale(0.015625)"/>
       <path id="DejaVuSans-62" d="M 3116 1747 
Q 3116 2381 2855 2742 
Q 2594 3103 2138 3103 
Q 1681 3103 1420 2742 
Q 1159 2381 1159 1747 
Q 1159 1113 1420 752 
Q 1681 391 2138 391 
Q 2594 391 2855 752 
Q 3116 1113 3116 1747 
z
M 1159 2969 
Q 1341 3281 1617 3432 
Q 1894 3584 2278 3584 
Q 2916 3584 3314 3078 
Q 3713 2572 3713 1747 
Q 3713 922 3314 415 
Q 2916 -91 2278 -91 
Q 1894 -91 1617 61 
Q 1341 213 1159 525 
L 1159 0 
L 581 0 
L 581 4863 
L 1159 4863 
L 1159 2969 
z
" transform="scale(0.015625)"/>
      </defs>
      <use xlink:href="#DejaVuSans-63"/>
      <use xlink:href="#DejaVuSans-75" x="54.980469"/>
      <use xlink:href="#DejaVuSans-62" x="118.359375"/>
      <use xlink:href="#DejaVuSans-69" x="181.835938"/>
      <use xlink:href="#DejaVuSans-63" x="209.619141"/>
      <use xlink:href="#DejaVuSans-2d" x="264.599609"/>
      <use xlink:href="#DejaVuSans-73" x="300.683594"/>
      <use xlink:href="#DejaVuSans-70" x="352.783203"/>
      <use xlink:href="#DejaVuSans-6c" x="416.259766"/>
      <use xlink:href="#DejaVuSans-69" x="444.042969"/>
      <use xlink:href="#DejaVuSans-6e" x="471.826172"/>
      <use xlink:href="#DejaVuSans-65" x="535.205078"/>
     </g>
    </g>
    <g id="line2d_18">
     <path d="M 471.159375 117.612813 
L 481.159375 117.612813 
L 491.159375 117.612813 
" style="fill: none; stroke: #2ca02c; stroke-width: 2; stroke-linecap: square"/>
    </g>
    <g id="text_14">
     <!-- linear-spline -->
     <g transform="translate(499.159375 121.112813)scale(0.1 -0.1)">
      <use xlink:href="#DejaVuSans-6c"/>
      <use xlink:href="#DejaVuSans-69" x="27.783203"/>
      <use xlink:href="#DejaVuSans-6e" x="55.566406"/>
      <use xlink:href="#DejaVuSans-65" x="118.945312"/>
      <use xlink:href="#DejaVuSans-61" x="180.46875"/>
      <use xlink:href="#DejaVuSans-72" x="241.748047"/>
      <use xlink:href="#DejaVuSans-2d" x="276.486328"/>
      <use xlink:href="#DejaVuSans-73" x="312.570312"/>
      <use xlink:href="#DejaVuSans-70" x="364.669922"/>
      <use xlink:href="#DejaVuSans-6c" x="428.146484"/>
      <use xlink:href="#DejaVuSans-69" x="455.929688"/>
      <use xlink:href="#DejaVuSans-6e" x="483.712891"/>
      <use xlink:href="#DejaVuSans-65" x="547.091797"/>
     </g>
    </g>
    <g id="line2d_19">
     <path d="M 471.159375 132.290938 
L 481.159375 132.290938 
L 491.159375 132.290938 
" style="fill: none; stroke: #d62728; stroke-width: 1.5; stroke-linecap: square"/>
    </g>
    <g id="text_15">
     <!-- decision-tree -->
     <g transform="translate(499.159375 135.790938)scale(0.1 -0.1)">
      <defs>
       <path id="DejaVuSans-64" d="M 2906 2969 
L 2906 4863 
L 3481 4863 
L 3481 0 
L 2906 0 
L 2906 525 
Q 2725 213 2448 61 
Q 2172 -91 1784 -91 
Q 1150 -91 751 415 
Q 353 922 353 1747 
Q 353 2572 751 3078 
Q 1150 3584 1784 3584 
Q 2172 3584 2448 3432 
Q 2725 3281 2906 2969 
z
M 947 1747 
Q 947 1113 1208 752 
Q 1469 391 1925 391 
Q 2381 391 2643 752 
Q 2906 1113 2906 1747 
Q 2906 2381 2643 2742 
Q 2381 3103 1925 3103 
Q 1469 3103 1208 2742 
Q 947 2381 947 1747 
z
" transform="scale(0.015625)"/>
      </defs>
      <use xlink:href="#DejaVuSans-64"/>
      <use xlink:href="#DejaVuSans-65" x="63.476562"/>
      <use xlink:href="#DejaVuSans-63" x="125"/>
      <use xlink:href="#DejaVuSans-69" x="179.980469"/>
      <use xlink:href="#DejaVuSans-73" x="207.763672"/>
      <use xlink:href="#DejaVuSans-69" x="259.863281"/>
      <use xlink:href="#DejaVuSans-6f" x="287.646484"/>
      <use xlink:href="#DejaVuSans-6e" x="348.828125"/>
      <use xlink:href="#DejaVuSans-2d" x="412.207031"/>
      <use xlink:href="#DejaVuSans-74" x="448.291016"/>
      <use xlink:href="#DejaVuSans-72" x="487.5"/>
      <use xlink:href="#DejaVuSans-65" x="526.363281"/>
      <use xlink:href="#DejaVuSans-65" x="587.886719"/>
     </g>
    </g>
    <g id="line2d_20">
     <path d="M 471.159375 146.969063 
L 481.159375 146.969063 
L 491.159375 146.969063 
" style="fill: none; stroke-dasharray: 2,3.3; stroke-dashoffset: 0; stroke: #ffff00; stroke-width: 2"/>
    </g>
    <g id="text_16">
     <!-- neural-net -->
     <g transform="translate(499.159375 150.469063)scale(0.1 -0.1)">
      <use xlink:href="#DejaVuSans-6e"/>
      <use xlink:href="#DejaVuSans-65" x="63.378906"/>
      <use xlink:href="#DejaVuSans-75" x="124.902344"/>
      <use xlink:href="#DejaVuSans-72" x="188.28125"/>
      <use xlink:href="#DejaVuSans-61" x="229.394531"/>
      <use xlink:href="#DejaVuSans-6c" x="290.673828"/>
      <use xlink:href="#DejaVuSans-2d" x="318.457031"/>
      <use xlink:href="#DejaVuSans-6e" x="354.541016"/>
      <use xlink:href="#DejaVuSans-65" x="417.919922"/>
      <use xlink:href="#DejaVuSans-74" x="479.443359"/>
     </g>
    </g>
   </g>
  </g>
 </g>
 <defs>
  <clipPath id="p3a853c612c">
   <rect x="81" y="60.48" width="502.2" height="380.52"/>
  </clipPath>
 </defs>
</svg>
